{
    "asset" : {
        "generator" : "Khronos glTF Blender I/O v1.6.16",
        "version" : "2.0"
    },
    "scene" : 0,
    "scenes" : [
        {
            "name" : "Scene",
            "nodes" : [
                0,
                1
            ]
        }
    ],
    "nodes" : [
        {
            "mesh" : 0,
            "name" : "000_Coin_base",
            "scale" : [
                0.02387695200741291,
                0.02387695200741291,
                0.02387695200741291
            ]
        },
        {
            "mesh" : 1,
            "name" : "001_Bitcoin_logo",
            "scale" : [
                0.02387695200741291,
                0.02387695200741291,
                0.02387695200741291
            ]
        }
    ],
    "materials" : [
        {
            "name" : "Cylinder material_4f15053a-8cbd-4ab7-a9b3-18d87fb5e5cc",
            "pbrMetallicRoughness" : {
                "baseColorFactor" : [
                    1,
                    0.6349999904632568,
                    0.18799999356269836,
                    1
                ],
                "metallicFactor" : 0
            }
        },
        {
            "name" : "Material_8c8270d0-613a-4b30-be7b-e5095ce5bfd6",
            "pbrMetallicRoughness" : {
                "metallicFactor" : 0
            }
        }
    ],
    "meshes" : [
        {
            "name" : "Coin_base",
            "primitives" : [
                {
                    "attributes" : {
                        "POSITION" : 0,
                        "NORMAL" : 1
                    },
                    "indices" : 2,
                    "material" : 0
                }
            ]
        },
        {
            "name" : "Bitcoin_logo",
            "primitives" : [
                {
                    "attributes" : {
                        "POSITION" : 3,
                        "NORMAL" : 4
                    },
                    "indices" : 5,
                    "material" : 1
                }
            ]
        }
    ],
    "accessors" : [
        {
            "bufferView" : 0,
            "componentType" : 5126,
            "count" : 53776,
            "max" : [
                48.84700012207031,
                100.01599884033203,
                41.37300109863281
            ],
            "min" : [
                -45.72200012207031,
                0.11699999868869781,
                -23.184999465942383
            ],
            "type" : "VEC3"
        },
        {
            "bufferView" : 1,
            "componentType" : 5126,
            "count" : 53776,
            "type" : "VEC3"
        },
        {
            "bufferView" : 2,
            "componentType" : 5123,
            "count" : 66408,
            "type" : "SCALAR"
        },
        {
            "bufferView" : 3,
            "componentType" : 5126,
            "count" : 5144,
            "max" : [
                14.791000366210938,
                76.80599975585938,
                27.452999114990234
            ],
            "min" : [
                -22.077999114990234,
                24.2549991607666,
                3.6389999389648438
            ],
            "type" : "VEC3"
        },
        {
            "bufferView" : 4,
            "componentType" : 5126,
            "count" : 5144,
            "type" : "VEC3"
        },
        {
            "bufferView" : 5,
            "componentType" : 5123,
            "count" : 6888,
            "type" : "SCALAR"
        }
    ],
    "bufferViews" : [
        {
            "buffer" : 0,
            "byteLength" : 645312,
            "byteOffset" : 0
        },
        {
            "buffer" : 0,
            "byteLength" : 645312,
            "byteOffset" : 645312
        },
        {
            "buffer" : 0,
            "byteLength" : 132816,
            "byteOffset" : 1290624
        },
        {
            "buffer" : 0,
            "byteLength" : 61728,
            "byteOffset" : 1423440
        },
        {
            "buffer" : 0,
            "byteLength" : 61728,
            "byteOffset" : 1485168
        },
        {
            "buffer" : 0,
            "byteLength" : 13776,
            "byteOffset" : 1546896
        }
    ],
    "buffers" : [
        {
            "byteLength" : 1560672,
            "uri" : "data:application/octet-stream;base64,"
        }
    ]
}
