{
  "accessors": [
    {
      "name": "Coin_base_0_positions",
      "componentType": 5126,
      "count": 44272,
      "min": [
        -45.72200012207031,
        0.11699999868869781,
        -23.184999465942383
      ],
      "max": [
        48.84700012207031,
        100.01599884033203,
        41.37300109863281
      ],
      "type": "VEC3",
      "bufferView": 0,
      "byteOffset": 0
    },
    {
      "name": "Coin_base_0_normals",
      "componentType": 5126,
      "count": 44272,
      "min": [
        -0.9797922372817993,
        -1,
        -0.982287585735321
      ],
      "max": [
        0.9663208723068237,
        1,
        0.989475667476654
      ],
      "type": "VEC3",
      "bufferView": 1,
      "byteOffset": 0
    },
    {
      "name": "Coin_base_0_indices",
      "componentType": 5123,
      "count": 66408,
      "min": [
        0
      ],
      "max": [
        44271
      ],
      "type": "SCALAR",
      "bufferView": 2,
      "byteOffset": 0
    },
    {
      "name": "Bitcoin_logo_0_positions",
      "componentType": 5126,
      "count": 4738,
      "min": [
        -22.077999114990234,
        24.2549991607666,
        3.6389999389648438
      ],
      "max": [
        14.791000366210938,
        76.80599975585938,
        27.452999114990234
      ],
      "type": "VEC3",
      "bufferView": 0,
      "byteOffset": 531264
    },
    {
      "name": "Bitcoin_logo_0_normals",
      "componentType": 5126,
      "count": 4738,
      "min": [
        -0.8660162687301636,
        -0.9999791383743286,
        -0.8660265803337097
      ],
      "max": [
        0.8660265803337097,
        0.9999998807907104,
        0.8660265803337097
      ],
      "type": "VEC3",
      "bufferView": 1,
      "byteOffset": 531264
    },
    {
      "name": "Bitcoin_logo_0_indices",
      "componentType": 5123,
      "count": 6888,
      "min": [
        0
      ],
      "max": [
        4737
      ],
      "type": "SCALAR",
      "bufferView": 2,
      "byteOffset": 132816
    }
  ],
  "asset": {
    "generator": "obj2gltf",
    "version": "2.0"
  },
  "buffers": [
    {
      "name": "Bitcoin",
      "byteLength": 1322832,
      "uri": "data:application/octet-stream;base64,"
    }
  ],
  "bufferViews": [
    {
      "name": "bufferView_0",
      "buffer": 0,
      "byteLength": 588120,
      "byteOffset": 0,
      "byteStride": 12,
      "target": 34962
    },
    {
      "name": "bufferView_1",
      "buffer": 0,
      "byteLength": 588120,
      "byteOffset": 588120,
      "byteStride": 12,
      "target": 34962
    },
    {
      "name": "bufferView_2",
      "buffer": 0,
      "byteLength": 146592,
      "byteOffset": 1176240,
      "target": 34963
    }
  ],
  "materials": [
    {
      "name": "Cylinder material_4f15053a-8cbd-4ab7-a9b3-18d87fb5e5cc",
      "pbrMetallicRoughness": {
        "baseColorFactor": [
          1,
          0.635,
          0.188,
          1
        ],
        "metallicFactor": 0,
        "roughnessFactor": 1
      },
      "emissiveFactor": [
        0,
        0,
        0
      ],
      "alphaMode": "OPAQUE",
      "doubleSided": false
    },
    {
      "name": "Material_8c8270d0-613a-4b30-be7b-e5095ce5bfd6",
      "pbrMetallicRoughness": {
        "baseColorFactor": [
          1,
          1,
          1,
          1
        ],
        "metallicFactor": 0,
        "roughnessFactor": 1
      },
      "emissiveFactor": [
        0,
        0,
        0
      ],
      "alphaMode": "OPAQUE",
      "doubleSided": false
    }
  ],
  "meshes": [
    {
      "name": "Coin_base",
      "primitives": [
        {
          "attributes": {
            "POSITION": 0,
            "NORMAL": 1
          },
          "indices": 2,
          "material": 0,
          "mode": 4
        }
      ]
    },
    {
      "name": "Bitcoin_logo",
      "primitives": [
        {
          "attributes": {
            "POSITION": 3,
            "NORMAL": 4
          },
          "indices": 5,
          "material": 1,
          "mode": 4
        }
      ]
    }
  ],
  "nodes": [
    {
      "name": "000_Coin_base",
      "mesh": 0
    },
    {
      "name": "001_Bitcoin_logo",
      "mesh": 1
    }
  ],
  "scene": 0,
  "scenes": [
    {
      "nodes": [
        0,
        1
      ]
    }
  ]
}
