{
    "asset" : {
        "generator" : "Khronos glTF Blender I/O v1.6.16",
        "version" : "2.0"
    },
    "scene" : 0,
    "scenes" : [
        {
            "name" : "Scene",
            "nodes" : [
                0,
                1,
                2,
                3,
                4,
                5,
                6,
                7,
                8,
                9,
                10,
                11,
                12,
                13,
                14
            ]
        },
        {
            "name" : "Scene.001"
        }
    ],
    "nodes" : [
        {
            "mesh" : 0,
            "name" : "Monitor"
        },
        {
            "name" : "TrueIsoCam",
            "rotation" : [
                0.4247112274169922,
                0.33985042572021484,
                -0.17592111229896545,
                0.8204717040061951
            ],
            "translation" : [
                30.608610153198242,
                30.608610153198242,
                30.608610153198242
            ]
        },
        {
            "name" : "ISO Primary",
            "rotation" : [
                -0.026174677535891533,
                -0.2777717709541321,
                -0.6120763421058655,
                0.7399461269378662
            ],
            "translation" : [
                4.578248500823975,
                1.4763991832733154,
                1.3772555589675903
            ]
        },
        {
            "name" : "ISO Left",
            "rotation" : [
                -0.08248468488454819,
                0.5569695830345154,
                0.8091809749603271,
                0.16795045137405396
            ],
            "translation" : [
                -3.652202606201172,
                -0.5502085089683533,
                3.326660633087158
            ]
        },
        {
            "name" : "ISO Top",
            "translation" : [
                0,
                4.189457416534424,
                -0.9681752920150757
            ]
        },
        {
            "name" : "ISO Add On",
            "translation" : [
                2.2862935066223145,
                -0.41202208399772644,
                -0.2534947395324707
            ]
        },
        {
            "name" : "Main Camera",
            "rotation" : [
                0.7071068286895752,
                0,
                0,
                0.7071067094802856
            ],
            "translation" : [
                0,
                0,
                9.73033618927002
            ]
        },
        {
            "name" : "Front Addon",
            "translation" : [
                1.4595177173614502,
                -0.963281512260437,
                -0.03942347690463066
            ]
        },
        {
            "name" : "Front Primary Light",
            "rotation" : [
                0.12857979536056519,
                -0.5122630000114441,
                -0.6682862043380737,
                0.5238772630691528
            ],
            "translation" : [
                3.39245867729187,
                0.5409379601478577,
                4.663214683532715
            ]
        },
        {
            "name" : "Front Right Light",
            "rotation" : [
                -0.4338149428367615,
                0.4941633343696594,
                0.6427600979804993,
                0.39302241802215576
            ],
            "translation" : [
                -5.652316570281982,
                -0.12299716472625732,
                1.595360517501831
            ]
        },
        {
            "name" : "Front Top Light",
            "translation" : [
                0,
                5.072922706604004,
                -0.9681752920150757
            ]
        },
        {
            "name" : "Dynamic Top Light",
            "translation" : [
                0,
                4.812074184417725,
                -0.9681752920150757
            ]
        },
        {
            "name" : "Dynamic Primary Light",
            "rotation" : [
                0.01651904545724392,
                -0.28215292096138,
                -0.6272992491722107,
                0.7256808280944824
            ],
            "translation" : [
                5.0240325927734375,
                0.11052285134792328,
                1.8613345623016357
            ]
        },
        {
            "name" : "Dynamic Right Light",
            "rotation" : [
                -0.244252547621727,
                0.5558624267578125,
                0.7926807403564453,
                0.05490826070308685
            ],
            "translation" : [
                -1.991178274154663,
                -1.3259787559509277,
                3.8392672538757324
            ]
        },
        {
            "name" : "Dynamic Add on",
            "translation" : [
                1.8306195735931396,
                -1.4955047369003296,
                0.11469042301177979
            ]
        }
    ],
    "animations" : [
        {
            "channels" : [
                {
                    "sampler" : 0,
                    "target" : {
                        "node" : 0,
                        "path" : "translation"
                    }
                },
                {
                    "sampler" : 1,
                    "target" : {
                        "node" : 0,
                        "path" : "rotation"
                    }
                },
                {
                    "sampler" : 2,
                    "target" : {
                        "node" : 0,
                        "path" : "scale"
                    }
                }
            ],
            "name" : "MonitorAction",
            "samplers" : [
                {
                    "input" : 16,
                    "interpolation" : "LINEAR",
                    "output" : 17
                },
                {
                    "input" : 16,
                    "interpolation" : "LINEAR",
                    "output" : 18
                },
                {
                    "input" : 16,
                    "interpolation" : "LINEAR",
                    "output" : 19
                }
            ]
        }
    ],
    "materials" : [
        {
            "doubleSided" : true,
            "name" : "Color - Green Body",
            "pbrMetallicRoughness" : {
                "metallicFactor" : 0,
                "roughnessFactor" : 0.30000001192092896
            }
        },
        {
            "doubleSided" : true,
            "name" : "Color - Yellow Screen",
            "pbrMetallicRoughness" : {
                "metallicFactor" : 0,
                "roughnessFactor" : 0.30000001192092896
            }
        },
        {
            "doubleSided" : true,
            "name" : "Clay White",
            "pbrMetallicRoughness" : {
                "baseColorFactor" : [
                    0.7991032600402832,
                    0.7991029024124146,
                    0.7991030216217041,
                    1
                ],
                "metallicFactor" : 0,
                "roughnessFactor" : 0.6000000238418579
            }
        },
        {
            "doubleSided" : true,
            "name" : "Silver Metal",
            "pbrMetallicRoughness" : {
                "baseColorFactor" : [
                    0.6847962737083435,
                    0.6847962737083435,
                    0.6847962737083435,
                    1
                ],
                "roughnessFactor" : 0.25
            }
        }
    ],
    "meshes" : [
        {
            "name" : "Cube.027",
            "primitives" : [
                {
                    "attributes" : {
                        "POSITION" : 0,
                        "NORMAL" : 1,
                        "TEXCOORD_0" : 2
                    },
                    "indices" : 3,
                    "material" : 0
                },
                {
                    "attributes" : {
                        "POSITION" : 4,
                        "NORMAL" : 5,
                        "TEXCOORD_0" : 6
                    },
                    "indices" : 7,
                    "material" : 1
                },
                {
                    "attributes" : {
                        "POSITION" : 8,
                        "NORMAL" : 9,
                        "TEXCOORD_0" : 10
                    },
                    "indices" : 11,
                    "material" : 2
                },
                {
                    "attributes" : {
                        "POSITION" : 12,
                        "NORMAL" : 13,
                        "TEXCOORD_0" : 14
                    },
                    "indices" : 15,
                    "material" : 3
                }
            ]
        }
    ],
    "accessors" : [
        {
            "bufferView" : 0,
            "componentType" : 5126,
            "count" : 24684,
            "max" : [
                0.9396737813949585,
                0.888120174407959,
                0.11184106767177582
            ],
            "min" : [
                -0.9396736025810242,
                -0.5290032625198364,
                -0.11184816807508469
            ],
            "type" : "VEC3"
        },
        {
            "bufferView" : 1,
            "componentType" : 5126,
            "count" : 24684,
            "type" : "VEC3"
        },
        {
            "bufferView" : 2,
            "componentType" : 5126,
            "count" : 24684,
            "type" : "VEC2"
        },
        {
            "bufferView" : 3,
            "componentType" : 5123,
            "count" : 100128,
            "type" : "SCALAR"
        },
        {
            "bufferView" : 4,
            "componentType" : 5126,
            "count" : 4077,
            "max" : [
                0.8201468586921692,
                0.7687454223632812,
                0.09361689537763596
            ],
            "min" : [
                -0.820146918296814,
                -0.243746817111969,
                0.07841160148382187
            ],
            "type" : "VEC3"
        },
        {
            "bufferView" : 5,
            "componentType" : 5126,
            "count" : 4077,
            "type" : "VEC3"
        },
        {
            "bufferView" : 6,
            "componentType" : 5126,
            "count" : 4077,
            "type" : "VEC2"
        },
        {
            "bufferView" : 7,
            "componentType" : 5123,
            "count" : 22176,
            "type" : "SCALAR"
        },
        {
            "bufferView" : 8,
            "componentType" : 5126,
            "count" : 242,
            "max" : [
                0.06003482639789581,
                -0.30605337023735046,
                0.150414377450943
            ],
            "min" : [
                -0.06003482639789581,
                -0.4261229932308197,
                0.09037955105304718
            ],
            "type" : "VEC3"
        },
        {
            "bufferView" : 9,
            "componentType" : 5126,
            "count" : 242,
            "type" : "VEC3"
        },
        {
            "bufferView" : 10,
            "componentType" : 5126,
            "count" : 242,
            "type" : "VEC2"
        },
        {
            "bufferView" : 11,
            "componentType" : 5123,
            "count" : 1152,
            "type" : "SCALAR"
        },
        {
            "bufferView" : 12,
            "componentType" : 5126,
            "count" : 15385,
            "max" : [
                0.24399827420711517,
                -0.25482600927352905,
                0.2213805466890335
            ],
            "min" : [
                -0.24399827420711517,
                -0.9132435321807861,
                -0.32809731364250183
            ],
            "type" : "VEC3"
        },
        {
            "bufferView" : 13,
            "componentType" : 5126,
            "count" : 15385,
            "type" : "VEC3"
        },
        {
            "bufferView" : 14,
            "componentType" : 5126,
            "count" : 15385,
            "type" : "VEC2"
        },
        {
            "bufferView" : 15,
            "componentType" : 5123,
            "count" : 82944,
            "type" : "SCALAR"
        },
        {
            "bufferView" : 16,
            "componentType" : 5126,
            "count" : 3,
            "max" : [
                0.08333333333333333
            ],
            "min" : [
                0
            ],
            "type" : "SCALAR"
        },
        {
            "bufferView" : 17,
            "componentType" : 5126,
            "count" : 3,
            "type" : "VEC3"
        },
        {
            "bufferView" : 18,
            "componentType" : 5126,
            "count" : 3,
            "type" : "VEC4"
        },
        {
            "bufferView" : 19,
            "componentType" : 5126,
            "count" : 3,
            "type" : "VEC3"
        }
    ],
    "bufferViews" : [
        {
            "buffer" : 0,
            "byteLength" : 296208,
            "byteOffset" : 0
        },
        {
            "buffer" : 0,
            "byteLength" : 296208,
            "byteOffset" : 296208
        },
        {
            "buffer" : 0,
            "byteLength" : 197472,
            "byteOffset" : 592416
        },
        {
            "buffer" : 0,
            "byteLength" : 200256,
            "byteOffset" : 789888
        },
        {
            "buffer" : 0,
            "byteLength" : 48924,
            "byteOffset" : 990144
        },
        {
            "buffer" : 0,
            "byteLength" : 48924,
            "byteOffset" : 1039068
        },
        {
            "buffer" : 0,
            "byteLength" : 32616,
            "byteOffset" : 1087992
        },
        {
            "buffer" : 0,
            "byteLength" : 44352,
            "byteOffset" : 1120608
        },
        {
            "buffer" : 0,
            "byteLength" : 2904,
            "byteOffset" : 1164960
        },
        {
            "buffer" : 0,
            "byteLength" : 2904,
            "byteOffset" : 1167864
        },
        {
            "buffer" : 0,
            "byteLength" : 1936,
            "byteOffset" : 1170768
        },
        {
            "buffer" : 0,
            "byteLength" : 2304,
            "byteOffset" : 1172704
        },
        {
            "buffer" : 0,
            "byteLength" : 184620,
            "byteOffset" : 1175008
        },
        {
            "buffer" : 0,
            "byteLength" : 184620,
            "byteOffset" : 1359628
        },
        {
            "buffer" : 0,
            "byteLength" : 123080,
            "byteOffset" : 1544248
        },
        {
            "buffer" : 0,
            "byteLength" : 165888,
            "byteOffset" : 1667328
        },
        {
            "buffer" : 0,
            "byteLength" : 12,
            "byteOffset" : 1833216
        },
        {
            "buffer" : 0,
            "byteLength" : 36,
            "byteOffset" : 1833228
        },
        {
            "buffer" : 0,
            "byteLength" : 48,
            "byteOffset" : 1833264
        },
        {
            "buffer" : 0,
            "byteLength" : 36,
            "byteOffset" : 1833312
        }
    ],
    "buffers" : [
        {
            "byteLength" : 1833348,
            "uri" : "data:application/octet-stream;base64,"
        }
    ]
}
