{
    "asset" : {
        "generator" : "Khronos glTF Blender I/O v1.6.16",
        "version" : "2.0"
    },
    "scene" : 0,
    "scenes" : [
        {
            "name" : "Scene",
            "nodes" : [
                0,
                1,
                2,
                3,
                4,
                5,
                6,
                7,
                8,
                9,
                10,
                11,
                12
            ]
        },
        {
            "name" : "Scene.001",
            "nodes" : [
                13
            ]
        }
    ],
    "nodes" : [
        {
            "mesh" : 0,
            "name" : "Folder Star"
        },
        {
            "name" : "TrueIsoCam",
            "rotation" : [
                0.4247112274169922,
                0.33985042572021484,
                -0.17592111229896545,
                0.8204717040061951
            ],
            "translation" : [
                30.608610153198242,
                30.608610153198242,
                30.608610153198242
            ]
        },
        {
            "name" : "ISO Primary",
            "rotation" : [
                0.039116740226745605,
                -0.3474620282649994,
                -0.7520937323570251,
                0.5586546659469604
            ],
            "translation" : [
                4.545223712921143,
                -0.8423436284065247,
                3.7482354640960693
            ]
        },
        {
            "name" : "ISO Left",
            "rotation" : [
                -0.3140261471271515,
                0.48414716124534607,
                0.7503101229667664,
                0.32252761721611023
            ],
            "translation" : [
                -5.11992073059082,
                -1.545608639717102,
                3.3462910652160645
            ]
        },
        {
            "name" : "ISO Top",
            "translation" : [
                0,
                4.921986103057861,
                -0.9681752920150757
            ]
        },
        {
            "name" : "ISO Add On",
            "translation" : [
                3.8454155921936035,
                -0.8534151315689087,
                -1.7591941356658936
            ]
        },
        {
            "name" : "Main Camera",
            "rotation" : [
                0.7071068286895752,
                0,
                0,
                0.7071067094802856
            ],
            "translation" : [
                0,
                0,
                9.73033618927002
            ]
        },
        {
            "name" : "Front Primary Light",
            "rotation" : [
                0.2301919311285019,
                -0.5182019472122192,
                -0.5474903583526611,
                0.6154126524925232
            ],
            "translation" : [
                2.9937596321105957,
                1.895578384399414,
                7.258597373962402
            ]
        },
        {
            "name" : "Front Right Light",
            "rotation" : [
                -0.4338149428367615,
                0.4941633343696594,
                0.6427600979804993,
                0.39302241802215576
            ],
            "translation" : [
                -5.7154340744018555,
                -0.1076553612947464,
                1.3309454917907715
            ]
        },
        {
            "name" : "Front Top Light",
            "translation" : [
                0,
                5.072922706604004,
                -0.9681752920150757
            ]
        },
        {
            "name" : "Dynamic Top Light",
            "translation" : [
                0,
                5.072922706604004,
                -0.9681752920150757
            ]
        },
        {
            "name" : "Dynamic Primary Light",
            "rotation" : [
                0.17363965511322021,
                -0.45330336689949036,
                -0.5679641962051392,
                0.6646668314933777
            ],
            "translation" : [
                4.186424255371094,
                1.4262160062789917,
                4.9684858322143555
            ]
        },
        {
            "name" : "Dynamic Right Light",
            "rotation" : [
                -0.42037543654441833,
                0.5362700819969177,
                0.6563754677772522,
                0.3238365650177002
            ],
            "translation" : [
                -5.047194957733154,
                -0.1076553612947464,
                2.766099452972412
            ]
        },
        {
            "mesh" : 1,
            "name" : "Plane"
        }
    ],
    "animations" : [
        {
            "channels" : [
                {
                    "sampler" : 0,
                    "target" : {
                        "node" : 0,
                        "path" : "translation"
                    }
                },
                {
                    "sampler" : 1,
                    "target" : {
                        "node" : 0,
                        "path" : "rotation"
                    }
                },
                {
                    "sampler" : 2,
                    "target" : {
                        "node" : 0,
                        "path" : "scale"
                    }
                }
            ],
            "name" : "Folder StarAction",
            "samplers" : [
                {
                    "input" : 16,
                    "interpolation" : "LINEAR",
                    "output" : 17
                },
                {
                    "input" : 16,
                    "interpolation" : "LINEAR",
                    "output" : 18
                },
                {
                    "input" : 16,
                    "interpolation" : "LINEAR",
                    "output" : 19
                }
            ]
        }
    ],
    "materials" : [
        {
            "doubleSided" : true,
            "name" : "Color - Yellow",
            "pbrMetallicRoughness" : {
                "metallicFactor" : 0,
                "roughnessFactor" : 0.5
            }
        },
        {
            "doubleSided" : true,
            "name" : "Clay White",
            "pbrMetallicRoughness" : {
                "baseColorFactor" : [
                    0.7991032600402832,
                    0.7991029024124146,
                    0.7991030216217041,
                    1
                ],
                "metallicFactor" : 0,
                "roughnessFactor" : 0.6000000238418579
            }
        },
        {
            "doubleSided" : true,
            "name" : "Silver",
            "pbrMetallicRoughness" : {
                "baseColorFactor" : [
                    0.6847962737083435,
                    0.6847962737083435,
                    0.6847962737083435,
                    1
                ],
                "roughnessFactor" : 0.5
            }
        }
    ],
    "meshes" : [
        {
            "name" : "Plane.011",
            "primitives" : [
                {
                    "attributes" : {
                        "POSITION" : 0,
                        "NORMAL" : 1,
                        "TEXCOORD_0" : 2
                    },
                    "indices" : 3,
                    "material" : 0
                },
                {
                    "attributes" : {
                        "POSITION" : 4,
                        "NORMAL" : 5,
                        "TEXCOORD_0" : 6
                    },
                    "indices" : 7,
                    "material" : 1
                },
                {
                    "attributes" : {
                        "POSITION" : 8,
                        "NORMAL" : 9,
                        "TEXCOORD_0" : 10
                    },
                    "indices" : 11,
                    "material" : 2
                }
            ]
        },
        {
            "name" : "Plane",
            "primitives" : [
                {
                    "attributes" : {
                        "POSITION" : 12,
                        "NORMAL" : 13,
                        "TEXCOORD_0" : 14
                    },
                    "indices" : 15
                }
            ]
        }
    ],
    "accessors" : [
        {
            "bufferView" : 0,
            "componentType" : 5126,
            "count" : 25131,
            "max" : [
                0.9548708200454712,
                0.8344042301177979,
                0.3653324246406555
            ],
            "min" : [
                -0.9456153512001038,
                -0.8116326928138733,
                -0.10158814489841461
            ],
            "type" : "VEC3"
        },
        {
            "bufferView" : 1,
            "componentType" : 5126,
            "count" : 25131,
            "type" : "VEC3"
        },
        {
            "bufferView" : 2,
            "componentType" : 5126,
            "count" : 25131,
            "type" : "VEC2"
        },
        {
            "bufferView" : 3,
            "componentType" : 5123,
            "count" : 145920,
            "type" : "SCALAR"
        },
        {
            "bufferView" : 4,
            "componentType" : 5126,
            "count" : 23452,
            "max" : [
                0.9185283184051514,
                0.528236448764801,
                0.3017317056655884
            ],
            "min" : [
                -0.9119017720222473,
                -0.6914463043212891,
                0.03640104457736015
            ],
            "type" : "VEC3"
        },
        {
            "bufferView" : 5,
            "componentType" : 5126,
            "count" : 23452,
            "type" : "VEC3"
        },
        {
            "bufferView" : 6,
            "componentType" : 5126,
            "count" : 23452,
            "type" : "VEC2"
        },
        {
            "bufferView" : 7,
            "componentType" : 5123,
            "count" : 128256,
            "type" : "SCALAR"
        },
        {
            "bufferView" : 8,
            "componentType" : 5126,
            "count" : 7753,
            "max" : [
                0.2882438600063324,
                0.08069634437561035,
                0.4689182937145233
            ],
            "min" : [
                -0.2737303376197815,
                -0.4550100266933441,
                0.30477964878082275
            ],
            "type" : "VEC3"
        },
        {
            "bufferView" : 9,
            "componentType" : 5126,
            "count" : 7753,
            "type" : "VEC3"
        },
        {
            "bufferView" : 10,
            "componentType" : 5126,
            "count" : 7753,
            "type" : "VEC2"
        },
        {
            "bufferView" : 11,
            "componentType" : 5123,
            "count" : 38400,
            "type" : "SCALAR"
        },
        {
            "bufferView" : 12,
            "componentType" : 5126,
            "count" : 4,
            "max" : [
                1,
                0,
                1
            ],
            "min" : [
                -1,
                0,
                -1
            ],
            "type" : "VEC3"
        },
        {
            "bufferView" : 13,
            "componentType" : 5126,
            "count" : 4,
            "type" : "VEC3"
        },
        {
            "bufferView" : 14,
            "componentType" : 5126,
            "count" : 4,
            "type" : "VEC2"
        },
        {
            "bufferView" : 15,
            "componentType" : 5123,
            "count" : 6,
            "type" : "SCALAR"
        },
        {
            "bufferView" : 16,
            "componentType" : 5126,
            "count" : 3,
            "max" : [
                0.08333333333333333
            ],
            "min" : [
                0
            ],
            "type" : "SCALAR"
        },
        {
            "bufferView" : 17,
            "componentType" : 5126,
            "count" : 3,
            "type" : "VEC3"
        },
        {
            "bufferView" : 18,
            "componentType" : 5126,
            "count" : 3,
            "type" : "VEC4"
        },
        {
            "bufferView" : 19,
            "componentType" : 5126,
            "count" : 3,
            "type" : "VEC3"
        }
    ],
    "bufferViews" : [
        {
            "buffer" : 0,
            "byteLength" : 301572,
            "byteOffset" : 0
        },
        {
            "buffer" : 0,
            "byteLength" : 301572,
            "byteOffset" : 301572
        },
        {
            "buffer" : 0,
            "byteLength" : 201048,
            "byteOffset" : 603144
        },
        {
            "buffer" : 0,
            "byteLength" : 291840,
            "byteOffset" : 804192
        },
        {
            "buffer" : 0,
            "byteLength" : 281424,
            "byteOffset" : 1096032
        },
        {
            "buffer" : 0,
            "byteLength" : 281424,
            "byteOffset" : 1377456
        },
        {
            "buffer" : 0,
            "byteLength" : 187616,
            "byteOffset" : 1658880
        },
        {
            "buffer" : 0,
            "byteLength" : 256512,
            "byteOffset" : 1846496
        },
        {
            "buffer" : 0,
            "byteLength" : 93036,
            "byteOffset" : 2103008
        },
        {
            "buffer" : 0,
            "byteLength" : 93036,
            "byteOffset" : 2196044
        },
        {
            "buffer" : 0,
            "byteLength" : 62024,
            "byteOffset" : 2289080
        },
        {
            "buffer" : 0,
            "byteLength" : 76800,
            "byteOffset" : 2351104
        },
        {
            "buffer" : 0,
            "byteLength" : 48,
            "byteOffset" : 2427904
        },
        {
            "buffer" : 0,
            "byteLength" : 48,
            "byteOffset" : 2427952
        },
        {
            "buffer" : 0,
            "byteLength" : 32,
            "byteOffset" : 2428000
        },
        {
            "buffer" : 0,
            "byteLength" : 12,
            "byteOffset" : 2428032
        },
        {
            "buffer" : 0,
            "byteLength" : 12,
            "byteOffset" : 2428044
        },
        {
            "buffer" : 0,
            "byteLength" : 36,
            "byteOffset" : 2428056
        },
        {
            "buffer" : 0,
            "byteLength" : 48,
            "byteOffset" : 2428092
        },
        {
            "buffer" : 0,
            "byteLength" : 36,
            "byteOffset" : 2428140
        }
    ],
    "buffers" : [
        {
            "byteLength" : 2428176,
            "uri" : "data:application/octet-stream;base64,"
        }
    ]
}
