{
    "asset" : {
        "generator" : "Khronos glTF Blender I/O v1.6.16",
        "version" : "2.0"
    },
    "scene" : 0,
    "scenes" : [
        {
            "name" : "Scene",
            "nodes" : [
                0,
                1,
                2,
                3,
                4,
                5,
                6,
                7,
                8,
                9,
                10,
                11,
                12,
                13,
                14
            ]
        },
        {
            "name" : "Scene.001"
        }
    ],
    "nodes" : [
        {
            "mesh" : 0,
            "name" : "Cube"
        },
        {
            "name" : "TrueIsoCam",
            "rotation" : [
                0.4247112274169922,
                0.33985042572021484,
                -0.17592111229896545,
                0.8204717040061951
            ],
            "translation" : [
                30.608610153198242,
                30.608610153198242,
                30.608610153198242
            ]
        },
        {
            "name" : "ISO Primary",
            "rotation" : [
                -0.12874987721443176,
                -0.09819167852401733,
                -0.5792810916900635,
                0.7988839149475098
            ],
            "translation" : [
                4.007586479187012,
                1.3639247417449951,
                -0.7798479199409485
            ]
        },
        {
            "name" : "ISO Left",
            "rotation" : [
                -0.028774503618478775,
                0.468015193939209,
                0.8269848227500916,
                0.3102095127105713
            ],
            "translation" : [
                -2.2158327102661133,
                -0.47052910923957825,
                2.3375356197357178
            ]
        },
        {
            "name" : "ISO Top",
            "translation" : [
                0,
                4.189457416534424,
                -0.9681752920150757
            ]
        },
        {
            "name" : "ISO Add On",
            "translation" : [
                1.8407819271087646,
                -3.14172101020813,
                -0.4546518325805664
            ]
        },
        {
            "name" : "Main Camera",
            "rotation" : [
                0.7071068286895752,
                0,
                0,
                0.7071067094802856
            ],
            "translation" : [
                0,
                0,
                9.73033618927002
            ]
        },
        {
            "name" : "Front Addon",
            "translation" : [
                1.2173938751220703,
                -0.5849631428718567,
                -1.2058314085006714
            ]
        },
        {
            "name" : "Front Primary Light",
            "rotation" : [
                0.08224237710237503,
                -0.4575054943561554,
                -0.6987789273262024,
                0.5437213778495789
            ],
            "translation" : [
                3.14261531829834,
                -0.1597013771533966,
                3.190462112426758
            ]
        },
        {
            "name" : "Front Right Light",
            "rotation" : [
                -0.4338149428367615,
                0.4941633343696594,
                0.6427600979804993,
                0.39302241802215576
            ],
            "translation" : [
                -4.665576934814453,
                -0.18462249636650085,
                1.943540096282959
            ]
        },
        {
            "name" : "Front Top Light",
            "translation" : [
                0,
                4.7097368240356445,
                -0.9681752920150757
            ]
        },
        {
            "name" : "Dynamic Top Light",
            "translation" : [
                0,
                5.072922706604004,
                -0.9681752920150757
            ]
        },
        {
            "name" : "Dynamic Primary Light",
            "rotation" : [
                0.0934419333934784,
                -0.2804115414619446,
                -0.5977873206138611,
                0.7451766729354858
            ],
            "translation" : [
                3.5535318851470947,
                1.3661807775497437,
                2.6025445461273193
            ]
        },
        {
            "name" : "Dynamic Right Light",
            "rotation" : [
                -0.3300318121910095,
                0.5486260652542114,
                0.7017228603363037,
                0.312527596950531
            ],
            "translation" : [
                -2.9927592277526855,
                -0.07411517202854156,
                2.2208549976348877
            ]
        },
        {
            "name" : "Dynamic Add on",
            "rotation" : [
                0.9627243280410767,
                0,
                0,
                0.27048441767692566
            ],
            "translation" : [
                0.28139203786849976,
                -1.7948927879333496,
                0.542039692401886
            ]
        }
    ],
    "animations" : [
        {
            "channels" : [
                {
                    "sampler" : 0,
                    "target" : {
                        "node" : 0,
                        "path" : "translation"
                    }
                },
                {
                    "sampler" : 1,
                    "target" : {
                        "node" : 0,
                        "path" : "rotation"
                    }
                },
                {
                    "sampler" : 2,
                    "target" : {
                        "node" : 0,
                        "path" : "scale"
                    }
                }
            ],
            "name" : "CubeAction",
            "samplers" : [
                {
                    "input" : 8,
                    "interpolation" : "LINEAR",
                    "output" : 9
                },
                {
                    "input" : 8,
                    "interpolation" : "LINEAR",
                    "output" : 10
                },
                {
                    "input" : 8,
                    "interpolation" : "LINEAR",
                    "output" : 11
                }
            ]
        }
    ],
    "materials" : [
        {
            "doubleSided" : true,
            "name" : "Color - Check",
            "pbrMetallicRoughness" : {
                "metallicFactor" : 0
            }
        },
        {
            "doubleSided" : true,
            "name" : "Color - Pure Black",
            "pbrMetallicRoughness" : {
                "baseColorFactor" : [
                    0.033615972846746445,
                    0.03785499185323715,
                    0.04428580775856972,
                    1
                ],
                "metallicFactor" : 0,
                "roughnessFactor" : 0.5
            }
        }
    ],
    "meshes" : [
        {
            "name" : "Cube",
            "primitives" : [
                {
                    "attributes" : {
                        "POSITION" : 0,
                        "NORMAL" : 1,
                        "TEXCOORD_0" : 2
                    },
                    "indices" : 3,
                    "material" : 0
                },
                {
                    "attributes" : {
                        "POSITION" : 4,
                        "NORMAL" : 5,
                        "TEXCOORD_0" : 6
                    },
                    "indices" : 7,
                    "material" : 1
                }
            ]
        }
    ],
    "accessors" : [
        {
            "bufferView" : 0,
            "componentType" : 5126,
            "count" : 30988,
            "max" : [
                0.8942033052444458,
                0.8942033052444458,
                0.8942033052444458
            ],
            "min" : [
                -0.8942033052444458,
                -0.8942033052444458,
                -0.8942033052444458
            ],
            "type" : "VEC3"
        },
        {
            "bufferView" : 1,
            "componentType" : 5126,
            "count" : 30988,
            "type" : "VEC3"
        },
        {
            "bufferView" : 2,
            "componentType" : 5126,
            "count" : 30988,
            "type" : "VEC2"
        },
        {
            "bufferView" : 3,
            "componentType" : 5123,
            "count" : 163776,
            "type" : "SCALAR"
        },
        {
            "bufferView" : 4,
            "componentType" : 5126,
            "count" : 8369,
            "max" : [
                0.672193169593811,
                0.6721519231796265,
                0.8929091691970825
            ],
            "min" : [
                -0.6721932291984558,
                -0.6718167662620544,
                0.7189410924911499
            ],
            "type" : "VEC3"
        },
        {
            "bufferView" : 5,
            "componentType" : 5126,
            "count" : 8369,
            "type" : "VEC3"
        },
        {
            "bufferView" : 6,
            "componentType" : 5126,
            "count" : 8369,
            "type" : "VEC2"
        },
        {
            "bufferView" : 7,
            "componentType" : 5123,
            "count" : 40320,
            "type" : "SCALAR"
        },
        {
            "bufferView" : 8,
            "componentType" : 5126,
            "count" : 3,
            "max" : [
                0.08333333333333333
            ],
            "min" : [
                0
            ],
            "type" : "SCALAR"
        },
        {
            "bufferView" : 9,
            "componentType" : 5126,
            "count" : 3,
            "type" : "VEC3"
        },
        {
            "bufferView" : 10,
            "componentType" : 5126,
            "count" : 3,
            "type" : "VEC4"
        },
        {
            "bufferView" : 11,
            "componentType" : 5126,
            "count" : 3,
            "type" : "VEC3"
        }
    ],
    "bufferViews" : [
        {
            "buffer" : 0,
            "byteLength" : 371856,
            "byteOffset" : 0
        },
        {
            "buffer" : 0,
            "byteLength" : 371856,
            "byteOffset" : 371856
        },
        {
            "buffer" : 0,
            "byteLength" : 247904,
            "byteOffset" : 743712
        },
        {
            "buffer" : 0,
            "byteLength" : 327552,
            "byteOffset" : 991616
        },
        {
            "buffer" : 0,
            "byteLength" : 100428,
            "byteOffset" : 1319168
        },
        {
            "buffer" : 0,
            "byteLength" : 100428,
            "byteOffset" : 1419596
        },
        {
            "buffer" : 0,
            "byteLength" : 66952,
            "byteOffset" : 1520024
        },
        {
            "buffer" : 0,
            "byteLength" : 80640,
            "byteOffset" : 1586976
        },
        {
            "buffer" : 0,
            "byteLength" : 12,
            "byteOffset" : 1667616
        },
        {
            "buffer" : 0,
            "byteLength" : 36,
            "byteOffset" : 1667628
        },
        {
            "buffer" : 0,
            "byteLength" : 48,
            "byteOffset" : 1667664
        },
        {
            "buffer" : 0,
            "byteLength" : 36,
            "byteOffset" : 1667712
        }
    ],
    "buffers" : [
        {
            "byteLength" : 1667748,
            "uri" : "data:application/octet-stream;base64,"
        }
    ]
}
