{
    "asset" : {
        "generator" : "Khronos glTF Blender I/O v1.6.16",
        "version" : "2.0"
    },
    "scene" : 0,
    "scenes" : [
        {
            "name" : "Scene",
            "nodes" : [
                0,
                1,
                2,
                3,
                4,
                5,
                6,
                7,
                8,
                9,
                10,
                11,
                12,
                13,
                14
            ]
        },
        {
            "name" : "Scene.001"
        }
    ],
    "nodes" : [
        {
            "mesh" : 0,
            "name" : "music"
        },
        {
            "name" : "TrueIsoCam",
            "rotation" : [
                0.4247112274169922,
                0.33985042572021484,
                -0.17592111229896545,
                0.8204717040061951
            ],
            "translation" : [
                30.608610153198242,
                30.608610153198242,
                30.608610153198242
            ]
        },
        {
            "name" : "ISO Primary",
            "rotation" : [
                -0.03718039020895958,
                -0.24945485591888428,
                -0.587337076663971,
                0.7690416574478149
            ],
            "translation" : [
                4.947851657867432,
                0.5572002530097961,
                1.306204915046692
            ]
        },
        {
            "name" : "ISO Left",
            "rotation" : [
                -0.0731150433421135,
                0.5588758587837219,
                0.8100813031196594,
                0.16149376332759857
            ],
            "translation" : [
                -3.607046365737915,
                -0.47052910923957825,
                3.089542865753174
            ]
        },
        {
            "name" : "ISO Top",
            "translation" : [
                0,
                4.189457416534424,
                -0.9681752920150757
            ]
        },
        {
            "name" : "ISO Add On",
            "translation" : [
                -0.11593520641326904,
                -1.0534123182296753,
                1.1079062223434448
            ]
        },
        {
            "name" : "Main Camera",
            "rotation" : [
                0.7071068286895752,
                0,
                0,
                0.7071067094802856
            ],
            "translation" : [
                0,
                0,
                9.73033618927002
            ]
        },
        {
            "name" : "Front Addon",
            "translation" : [
                1.4595177173614502,
                -0.963281512260437,
                -0.03942347690463066
            ]
        },
        {
            "name" : "Front Primary Light",
            "rotation" : [
                0.14808622002601624,
                -0.5069681406021118,
                -0.6878417730331421,
                0.49792322516441345
            ],
            "translation" : [
                3.39245867729187,
                -0.47480446100234985,
                4.663214683532715
            ]
        },
        {
            "name" : "Front Right Light",
            "rotation" : [
                -0.4338149428367615,
                0.4941633343696594,
                0.6427600979804993,
                0.39302241802215576
            ],
            "translation" : [
                -5.398784160614014,
                -0.18462249636650085,
                1.7555382251739502
            ]
        },
        {
            "name" : "Front Top Light",
            "translation" : [
                0,
                5.072922706604004,
                -0.9681752920150757
            ]
        },
        {
            "name" : "Dynamic Top Light",
            "translation" : [
                0,
                5.072922706604004,
                -0.9681752920150757
            ]
        },
        {
            "name" : "Dynamic Primary Light",
            "rotation" : [
                0.09269680827856064,
                -0.3043729364871979,
                -0.6262539625167847,
                0.7117376923561096
            ],
            "translation" : [
                4.421819686889648,
                0.7885512113571167,
                2.5332236289978027
            ]
        },
        {
            "name" : "Dynamic Right Light",
            "rotation" : [
                -0.3300318121910095,
                0.5486260652542114,
                0.7017228603363037,
                0.312527596950531
            ],
            "translation" : [
                -4.423316955566406,
                -0.15525920689105988,
                2.5548248291015625
            ]
        },
        {
            "name" : "Dynamic Add on",
            "translation" : [
                -0.3073321580886841,
                -2.5521223545074463,
                0.5237572193145752
            ]
        }
    ],
    "animations" : [
        {
            "channels" : [
                {
                    "sampler" : 0,
                    "target" : {
                        "node" : 0,
                        "path" : "translation"
                    }
                },
                {
                    "sampler" : 1,
                    "target" : {
                        "node" : 0,
                        "path" : "rotation"
                    }
                },
                {
                    "sampler" : 2,
                    "target" : {
                        "node" : 0,
                        "path" : "scale"
                    }
                }
            ],
            "name" : "musicAction",
            "samplers" : [
                {
                    "input" : 4,
                    "interpolation" : "LINEAR",
                    "output" : 5
                },
                {
                    "input" : 4,
                    "interpolation" : "LINEAR",
                    "output" : 6
                },
                {
                    "input" : 4,
                    "interpolation" : "LINEAR",
                    "output" : 7
                }
            ]
        }
    ],
    "materials" : [
        {
            "doubleSided" : true,
            "name" : "Color - Red Grad",
            "pbrMetallicRoughness" : {
                "metallicFactor" : 0,
                "roughnessFactor" : 0.4000000059604645
            }
        }
    ],
    "meshes" : [
        {
            "name" : "Cube.023",
            "primitives" : [
                {
                    "attributes" : {
                        "POSITION" : 0,
                        "NORMAL" : 1,
                        "TEXCOORD_0" : 2
                    },
                    "indices" : 3,
                    "material" : 0
                }
            ]
        }
    ],
    "accessors" : [
        {
            "bufferView" : 0,
            "componentType" : 5126,
            "count" : 16916,
            "max" : [
                0.8867976069450378,
                0.9396346211433411,
                0.2379031926393509
            ],
            "min" : [
                -0.9362441301345825,
                -0.9479356408119202,
                -0.2379031628370285
            ],
            "type" : "VEC3"
        },
        {
            "bufferView" : 1,
            "componentType" : 5126,
            "count" : 16916,
            "type" : "VEC3"
        },
        {
            "bufferView" : 2,
            "componentType" : 5126,
            "count" : 16916,
            "type" : "VEC2"
        },
        {
            "bufferView" : 3,
            "componentType" : 5123,
            "count" : 93696,
            "type" : "SCALAR"
        },
        {
            "bufferView" : 4,
            "componentType" : 5126,
            "count" : 3,
            "max" : [
                0.08333333333333333
            ],
            "min" : [
                0
            ],
            "type" : "SCALAR"
        },
        {
            "bufferView" : 5,
            "componentType" : 5126,
            "count" : 3,
            "type" : "VEC3"
        },
        {
            "bufferView" : 6,
            "componentType" : 5126,
            "count" : 3,
            "type" : "VEC4"
        },
        {
            "bufferView" : 7,
            "componentType" : 5126,
            "count" : 3,
            "type" : "VEC3"
        }
    ],
    "bufferViews" : [
        {
            "buffer" : 0,
            "byteLength" : 202992,
            "byteOffset" : 0
        },
        {
            "buffer" : 0,
            "byteLength" : 202992,
            "byteOffset" : 202992
        },
        {
            "buffer" : 0,
            "byteLength" : 135328,
            "byteOffset" : 405984
        },
        {
            "buffer" : 0,
            "byteLength" : 187392,
            "byteOffset" : 541312
        },
        {
            "buffer" : 0,
            "byteLength" : 12,
            "byteOffset" : 728704
        },
        {
            "buffer" : 0,
            "byteLength" : 36,
            "byteOffset" : 728716
        },
        {
            "buffer" : 0,
            "byteLength" : 48,
            "byteOffset" : 728752
        },
        {
            "buffer" : 0,
            "byteLength" : 36,
            "byteOffset" : 728800
        }
    ],
    "buffers" : [
        {
            "byteLength" : 728836,
            "uri" : "data:application/octet-stream;base64,"
        }
    ]
}
